<svg width="32" height="34" viewBox="0 0 32 34" fill="none" xmlns="http://www.w3.org/2000/svg">
<path d="M3.76556 3.55872C3.77766 3.79545 3.83684 4.02735 3.93973 4.24114C4.04261 4.45494 4.18719 4.64645 4.36518 4.80473C4.54318 4.963 4.75111 5.08493 4.97708 5.16355C5.20306 5.24216 5.44264 5.27593 5.68213 5.2629L24.4792 4.24948L0.526904 30.5559C0.202569 30.9121 0.0342145 31.3806 0.0588858 31.8583C0.0835556 32.3361 0.299229 32.7839 0.658454 33.1033C1.01768 33.4228 1.49103 33.5876 1.97439 33.5616C2.45774 33.5356 2.91149 33.3208 3.23583 32.9646L27.1881 6.65821L28.1459 25.2373C28.1706 25.7154 28.3864 26.1634 28.7458 26.483C29.1052 26.8026 29.5788 26.9676 30.0625 26.9415C30.5461 26.9155 31.0001 26.7006 31.3246 26.3442C31.6491 25.9878 31.8176 25.519 31.7929 25.041L30.6089 2.11377C30.5968 1.87704 30.5377 1.64514 30.4348 1.43134C30.3319 1.21755 30.1873 1.02604 30.0093 0.867763C29.8313 0.709491 29.6234 0.58756 29.3974 0.508943C29.1714 0.430326 28.9319 0.396564 28.6924 0.409587L5.49599 1.65822C5.25648 1.67098 5.0217 1.73028 4.80508 1.83272C4.58846 1.93517 4.39424 2.07875 4.23353 2.25525C4.07282 2.43176 3.94877 2.63772 3.86847 2.86138C3.78818 3.08504 3.75321 3.322 3.76556 3.55872Z" fill="black"/>
</svg>
