<svg width="8" height="7" viewBox="0 0 8 7" fill="none" xmlns="http://www.w3.org/2000/svg">
<path d="M3.62757 5.6259C3.66614 5.66492 3.69674 5.71128 3.71762 5.76234C3.7385 5.81339 3.74925 5.86812 3.74925 5.9234C3.74925 5.97868 3.7385 6.03341 3.71762 6.08446C3.69674 6.13551 3.66614 6.18188 3.62757 6.2209L3.45105 6.40009C3.26367 6.59102 3.04086 6.74235 2.79551 6.84532C2.55017 6.94829 2.28714 7.00086 2.02166 6.99999C1.62185 7.00012 1.23098 6.87986 0.898506 6.65443C0.566034 6.429 0.306896 6.10852 0.153877 5.73354C0.00085856 5.35856 -0.0391652 4.94594 0.0388695 4.54786C0.116904 4.14979 0.309491 3.78415 0.592265 3.49722L1.79032 2.28098C2.04515 2.02232 2.36344 1.83751 2.71226 1.74568C3.06107 1.65384 3.42773 1.65833 3.77426 1.75866C4.1208 1.85899 4.43462 2.05153 4.68323 2.31635C4.93185 2.58116 5.10623 2.90862 5.18832 3.26482C5.20191 3.31898 5.20472 3.37535 5.19658 3.43063C5.18844 3.4859 5.16952 3.53897 5.14092 3.58673C5.11231 3.63449 5.07461 3.67597 5.03001 3.70874C4.98542 3.74151 4.93483 3.76492 4.88121 3.77759C4.82759 3.79026 4.77201 3.79194 4.71774 3.78253C4.66348 3.77312 4.6116 3.75281 4.56517 3.72278C4.51873 3.69276 4.47866 3.65363 4.44732 3.60769C4.41597 3.56174 4.39397 3.50991 4.3826 3.45522C4.33389 3.24495 4.23075 3.05171 4.08383 2.89546C3.93691 2.73922 3.75155 2.62564 3.54691 2.56648C3.34227 2.50732 3.12579 2.50472 2.91982 2.55894C2.71386 2.61317 2.52591 2.72226 2.37539 2.87492L1.17733 4.09116C1.01033 4.26056 0.896563 4.47643 0.850419 4.71147C0.804274 4.94651 0.827825 5.19016 0.918092 5.41161C1.00836 5.63306 1.16129 5.82236 1.35754 5.95557C1.55379 6.08879 1.78454 6.15993 2.02062 6.16C2.17748 6.16046 2.33288 6.12934 2.47781 6.06842C2.62274 6.0075 2.75433 5.918 2.86495 5.8051L3.04112 5.6259C3.07957 5.58669 3.12526 5.55558 3.17558 5.53435C3.2259 5.51312 3.27986 5.50219 3.33435 5.50219C3.38884 5.50219 3.44279 5.51312 3.49311 5.53435C3.54343 5.55558 3.58913 5.58669 3.62757 5.6259ZM7.40791 0.600993C7.02872 0.216177 6.51451 0 5.97834 0C5.44218 0 4.92797 0.216177 4.54878 0.600993L4.3726 0.779842C4.29488 0.858743 4.25122 0.965756 4.25122 1.07734C4.25122 1.18892 4.29488 1.29594 4.3726 1.37484C4.45033 1.45374 4.55574 1.49806 4.66565 1.49806C4.77557 1.49806 4.88098 1.45374 4.9587 1.37484L5.13522 1.19564C5.35924 0.968217 5.66308 0.840453 5.9799 0.840453C6.29671 0.840453 6.60055 0.968217 6.82457 1.19564C7.04859 1.42306 7.17444 1.73151 7.17444 2.05313C7.17444 2.37475 7.04859 2.6832 6.82457 2.91062L5.62444 4.12511C5.51382 4.23801 5.38223 4.32751 5.2373 4.38843C5.09237 4.44935 4.93698 4.48048 4.78012 4.48001C4.51103 4.47982 4.24989 4.38735 4.03906 4.2176C3.82823 4.04785 3.68007 3.81077 3.6186 3.54482C3.59373 3.43631 3.52742 3.34227 3.43425 3.28339C3.34108 3.22451 3.22869 3.20562 3.1218 3.23087C3.01491 3.25612 2.92228 3.32344 2.86428 3.41802C2.80628 3.51261 2.78768 3.6267 2.81255 3.73522C2.91636 4.18562 3.167 4.58721 3.52383 4.87487C3.88065 5.16253 4.32274 5.31939 4.77839 5.32H4.78012C5.04573 5.32074 5.30885 5.26801 5.55426 5.16486C5.79967 5.06171 6.02249 4.91019 6.20985 4.71906L7.40791 3.50282C7.59562 3.3123 7.74453 3.0861 7.84612 2.83715C7.94771 2.5882 8 2.32137 8 2.05191C8 1.78244 7.94771 1.51561 7.84612 1.26666C7.74453 1.01771 7.59562 0.791515 7.40791 0.600993Z" fill="black"/>
</svg>
