<svg width="32" height="25" viewBox="0 0 32 25" fill="none" xmlns="http://www.w3.org/2000/svg">
<path d="M2.28571 0H13.7143C14.3205 0 14.9019 0.260289 15.3305 0.723607C15.7592 1.18692 16 1.81532 16 2.47055C16 3.12578 15.7592 3.75417 15.3305 4.21749C14.9019 4.68081 14.3205 4.9411 13.7143 4.9411H2.28571C1.67951 4.9411 1.09812 4.68081 0.66947 4.21749C0.240816 3.75417 0 3.12578 0 2.47055C0 1.81532 0.240816 1.18692 0.66947 0.723607C1.09812 0.260289 1.67951 0 2.28571 0ZM18.2857 19.7644H29.7143C30.3205 19.7644 30.9019 20.0247 31.3305 20.488C31.7592 20.9513 32 21.5797 32 22.2349C32 22.8902 31.7592 23.5186 31.3305 23.9819C30.9019 24.4452 30.3205 24.7055 29.7143 24.7055H18.2857C17.6795 24.7055 17.0981 24.4452 16.6695 23.9819C16.2408 23.5186 16 22.8902 16 22.2349C16 21.5797 16.2408 20.9513 16.6695 20.488C17.0981 20.0247 17.6795 19.7644 18.2857 19.7644ZM2.28571 9.8822H29.7143C30.3205 9.8822 30.9019 10.1425 31.3305 10.6058C31.7592 11.0691 32 11.6975 32 12.3527C32 13.008 31.7592 13.6364 31.3305 14.0997C30.9019 14.563 30.3205 14.8233 29.7143 14.8233H2.28571C1.67951 14.8233 1.09812 14.563 0.66947 14.0997C0.240816 13.6364 0 13.008 0 12.3527C0 11.6975 0.240816 11.0691 0.66947 10.6058C1.09812 10.1425 1.67951 9.8822 2.28571 9.8822Z" fill="black"/>
</svg>
