<svg width="17" height="18" viewBox="0 0 17 18" fill="none" xmlns="http://www.w3.org/2000/svg">
<g filter="url(#filter0_b_15_129)">
<path d="M2.82614 2.36774C2.83219 2.4861 2.86178 2.60205 2.91322 2.70895C2.96467 2.81585 3.03695 2.91161 3.12595 2.99074C3.21495 3.06988 3.31892 3.13084 3.4319 3.17015C3.54489 3.20946 3.66468 3.22634 3.78443 3.21983L13.1829 2.71312L1.20681 15.8663C1.04464 16.0444 0.960467 16.2787 0.972802 16.5176C0.985137 16.7564 1.09297 16.9803 1.27259 17.1401C1.4522 17.2998 1.68888 17.3822 1.93055 17.3692C2.17223 17.3562 2.39911 17.2488 2.56127 17.0707L14.5374 3.91749L15.0163 13.207C15.0286 13.4461 15.1365 13.6701 15.3163 13.8299C15.496 13.9897 15.7328 14.0722 15.9746 14.0591C16.2164 14.0461 16.4434 13.9387 16.6057 13.7605C16.7679 13.5823 16.8521 13.3479 16.8398 13.1089L16.2478 1.64526C16.2418 1.5269 16.2122 1.41095 16.1607 1.30405C16.1093 1.19715 16.037 1.1014 15.948 1.02226C15.859 0.943124 15.755 0.882159 15.6421 0.842851C15.5291 0.803542 15.4093 0.786661 15.2895 0.793172L3.69135 1.41749C3.5716 1.42387 3.45421 1.45352 3.3459 1.50474C3.23759 1.55596 3.14048 1.62775 3.06013 1.716C2.97977 1.80426 2.91774 1.90724 2.8776 2.01907C2.83745 2.1309 2.81996 2.24938 2.82614 2.36774Z" fill="white"/>
</g>
<defs>
<filter id="filter0_b_15_129" x="-12.4284" y="-12.6083" width="42.6694" height="43.3789" filterUnits="userSpaceOnUse" color-interpolation-filters="sRGB">
<feFlood flood-opacity="0" result="BackgroundImageFix"/>
<feGaussianBlur in="BackgroundImageFix" stdDeviation="6.7"/>
<feComposite in2="SourceAlpha" operator="in" result="effect1_backgroundBlur_15_129"/>
<feBlend mode="normal" in="SourceGraphic" in2="effect1_backgroundBlur_15_129" result="shape"/>
</filter>
</defs>
</svg>
